<svg width="24" height="24" viewBox="0 0 24 24" fill="none" xmlns="http://www.w3.org/2000/svg">
<path d="M12.058 20C9.83532 20 7.94632 19.2223 6.39098 17.667C4.83565 16.1117 4.05798 14.2227 4.05798 12C4.05798 9.974 4.71798 8.21733 6.03798 6.73C7.35798 5.24267 8.99265 4.36467 10.942 4.096C10.996 4.096 11.049 4.098 11.101 4.102C11.153 4.106 11.204 4.11167 11.254 4.119C10.9166 4.58967 10.6497 5.113 10.453 5.689C10.2563 6.265 10.158 6.86867 10.158 7.5C10.158 9.278 10.78 10.789 12.024 12.033C13.268 13.277 14.7793 13.8993 16.558 13.9C17.192 13.9 17.7963 13.8017 18.371 13.605C18.9457 13.4083 19.4616 13.1413 19.919 12.804C19.927 12.854 19.9327 12.905 19.936 12.957C19.9393 13.009 19.9413 13.062 19.942 13.116C19.686 15.0647 18.8143 16.699 17.327 18.019C15.8396 19.339 14.084 19.9993 12.058 20Z" fill="#393939"/>
</svg>
